<svg width="19" height="19" viewBox="0 0 19 19" fill="none" xmlns="http://www.w3.org/2000/svg">
<path fill-rule="evenodd" clip-rule="evenodd" d="M10.6568 17.1461C15.008 16.3789 17.9133 12.2296 17.1461 7.87846C16.3789 3.5273 12.2296 0.621957 7.87846 1.38919C3.5273 2.15641 0.621957 6.30567 1.38919 10.6568C2.15641 15.008 6.30567 17.9133 10.6568 17.1461ZM14.3711 7.55993L8.43564 13.4954C8.23406 13.697 7.90729 13.697 7.70571 13.4954L4.35087 10.1405C4.14932 9.93899 4.14932 9.61218 4.35087 9.41064L5.08077 8.68073C5.28235 8.47918 5.60916 8.47918 5.81071 8.68073L8.07067 10.9407L12.9113 6.10012C13.1129 5.89854 13.4397 5.89854 13.6412 6.10012L14.3711 6.83002C14.5727 7.03157 14.5727 7.35838 14.3711 7.55993Z" fill="#24CE87"/>
</svg>
