<svg width="20" height="20" viewBox="0 0 20 20" fill="none" xmlns="http://www.w3.org/2000/svg">
<path d="M10.0135 16C9.29074 16 8.70729 15.4078 8.70729 14.6938C8.70729 13.971 9.29074 13.3875 10.0135 13.3875C10.7276 13.3875 11.3198 13.971 11.3198 14.6938C11.3198 15.4078 10.7276 16 10.0135 16ZM11.4068 10.7054C11.0846 10.836 10.8756 11.1495 10.8844 11.4978C10.8844 11.9768 10.4925 12.3687 10.0135 12.3687C9.52587 12.3687 9.1427 11.9768 9.1427 11.4978C9.13399 10.4528 9.75228 9.51236 10.7102 9.10307C11.5897 8.7112 11.9903 7.68362 11.6071 6.80409C11.2153 5.91585 10.1877 5.51527 9.30816 5.89843C8.67246 6.16839 8.25446 6.79538 8.26317 7.49204C8.26317 7.971 7.8713 8.36287 7.39235 8.36287C6.90468 8.36287 6.52152 7.971 6.52152 7.49204C6.51281 5.56752 8.07943 4.00004 9.99524 4.00004C11.9111 3.99133 13.4785 5.55881 13.4785 7.47463C13.4785 8.85924 12.6513 10.1045 11.3886 10.6618L11.4068 10.7054Z" fill="#708AA4"/>
<rect x="1" y="1" width="18" height="18" rx="9" stroke="#708AA4" stroke-width="2"/>
</svg>
