<svg width="16" height="16" viewBox="0 0 16 16" fill="none" xmlns="http://www.w3.org/2000/svg">
<path fill-rule="evenodd" clip-rule="evenodd" d="M7.4937 11.9367L2.78019 6.75083C2.57008 6.50354 2.54208 6.1364 2.71017 5.85913L4.279 3.83608C4.40507 3.61877 4.62918 3.52141 4.86731 3.52141H11.1917C11.4228 3.52141 11.6469 3.61126 11.773 3.82108L13.3208 5.7318C13.4889 6.00907 13.4679 6.3614 13.2578 6.61618L8.52325 11.914C8.2431 12.2437 7.75284 12.2437 7.47269 11.914L7.4937 11.9367ZM11.5839 2.03H4.4611C3.97785 2.03 3.5296 2.25472 3.27046 2.68935L1.21838 5.53714C0.882199 6.09167 0.938216 6.80364 1.35844 7.29821L6.95442 13.5101C7.51472 14.1695 8.49524 14.162 9.04853 13.4951L14.6585 7.13319C15.0647 6.63112 15.1137 5.90433 14.7776 5.3498L12.7465 2.64435C12.4874 2.22471 12.0461 2 11.5699 2" fill="#27CC87"/>
</svg>
