<svg width="144" height="65" viewBox="0 0 144 65" fill="none" xmlns="http://www.w3.org/2000/svg">
<path fill-rule="evenodd" clip-rule="evenodd" d="M100.909 18.8864H84.75C84.3424 14.3085 81.2528 11.4322 75.6403 11H72.5418C67.044 11.4119 64.2926 14.0235 64.2614 17.5227C64.125 21.6818 68.1477 23.7955 74.4886 25.1591L80.4886 26.5227C94.2614 29.5568 101.795 36.375 101.864 47.5227C101.824 55.3264 98.2419 61.2649 91.758 64.8312H106.67V42.6404H114.71L126.55 64.8312H143.644L130.19 40.1396C137.312 36.9107 141.428 30.5479 141.428 21.5893C141.428 8.26218 132.343 0 117.781 0H104H91H88.7553C96.3578 3.64018 100.82 10.3625 100.909 18.8864ZM48.254 11H48.2525C45.8804 4.26117 38.7204 0 27.0341 0H0V64.8312H29.0917C37.9694 64.8312 44.5055 61.8951 48.1968 57.1722C46.176 53.745 45.0628 49.5354 45 44.5227H61.1591C61.5341 51.2386 66.4432 54.7159 73.9091 54.7159C80.6932 54.7159 84.6818 51.75 84.75 47.4886C84.6818 43.5682 81.2386 41.4886 73.5682 39.7159L66.2727 38.0114C54.2045 35.25 46.7727 29.2841 46.8068 18.6818C46.785 15.9116 47.2904 13.3368 48.254 11ZM15.6696 52.2005V36.7524H25.6412C31.6242 36.7524 35.2963 39.918 35.2963 44.888C35.2963 49.4781 32.1307 52.2005 25.3563 52.2005H15.6696ZM15.6696 26.6542V12.4407H24.5966C29.8198 12.4407 33.1437 15.1315 33.1437 19.4367C33.1437 23.9951 29.4716 26.6542 24.3433 26.6542H15.6696ZM106.67 12.6307V30.2946H114.394C121.421 30.2946 125.188 27.6039 125.188 21.5893C125.188 15.5747 121.421 12.6307 114.394 12.6307H106.67Z" fill="white"/>
</svg>
