<svg width="290" height="166" viewBox="0 0 290 166" fill="none" xmlns="http://www.w3.org/2000/svg">
<path fill-rule="evenodd" clip-rule="evenodd" d="M68.6623 131.574C68.5704 131.507 68.481 131.441 68.3868 131.357C67.9034 131.025 67.5409 130.693 67.0576 130.472C66.6951 130.361 66.4534 130.14 66.2118 130.029C64.0368 124.717 60.1701 120.29 55.2159 117.302C50.3826 114.314 44.4618 112.654 38.2993 112.876C36.4868 112.986 34.7951 113.208 32.9826 113.54C30.6868 113.982 28.391 114.757 26.3368 115.753C25.7326 116.085 25.1285 116.417 24.5243 116.749C24.2826 115.974 23.9201 115.2 23.5576 114.536C21.6243 110.662 18.6035 107.453 14.8576 105.129C23.1951 101.366 29.5993 94.9476 32.8618 87.3116C32.8618 87.2009 32.9826 86.9796 32.9826 86.8689C32.9826 86.7582 33.1035 86.6476 33.1035 86.5369C33.7076 85.0982 34.191 83.6596 34.5535 82.1102C34.7951 81.0036 35.0368 79.8969 35.1576 78.6796C35.5201 75.2489 35.3993 71.5969 34.4326 67.9449C33.9493 66.0636 33.2243 64.2929 32.4993 62.5222C30.6868 58.5382 28.0285 55.1076 24.8868 52.1196C24.041 51.2342 23.0743 50.4596 22.1076 49.6849C20.6576 48.5782 19.0868 47.5822 17.3951 46.6969C13.7701 44.8156 9.6618 43.3769 5.43264 42.7129C3.8618 42.4916 2.17014 42.3809 0.599304 42.2702C1.92847 41.8276 3.25764 41.4956 4.5868 41.1636C13.891 39.2822 23.0743 41.4956 29.9618 46.4756C31.291 47.1396 32.3785 48.1356 33.3451 49.3529C34.0701 50.1276 34.7951 50.9022 35.3993 51.6769C44.9451 52.1196 53.4034 58.2062 55.6993 67.1702C57.7534 75.1382 54.2493 82.8849 47.7243 87.5329C51.8326 88.4182 55.6993 90.0782 59.2034 92.2916C63.9159 88.3076 69.8368 85.4302 76.4826 83.8809C84.6993 82.1102 92.7951 82.9956 99.9243 85.7622C103.066 83.9916 106.933 82.8849 110.92 82.8849C122.037 82.9956 131.099 91.2956 130.978 101.477C130.978 101.809 130.978 102.141 130.978 102.473C137.02 102.916 141.733 107.564 141.733 113.208C141.733 114.093 141.612 114.868 141.37 115.642C159.495 113.65 176.653 124.496 180.883 141.206C181.003 142.092 181.245 142.977 181.366 143.862C190.428 147.625 197.437 155.15 199.853 164.668C199.96 165.11 200.056 165.553 200.143 165.996H197.161C196.557 164.778 195.847 163.636 195.01 162.565C190.177 156.146 181.96 152.384 173.26 152.716C172.415 152.716 171.69 152.826 170.844 152.937C168.91 150.17 165.406 148.51 161.66 148.621C160.935 148.621 160.331 148.732 159.606 148.842C159.514 148.882 159.408 148.909 159.292 148.931L159.065 148.971C158.949 148.993 158.843 149.015 158.751 149.059C158.267 149.17 157.784 149.281 157.422 149.502C157.18 148.838 156.938 148.285 156.697 147.731C156.213 146.846 155.73 145.961 155.247 145.186C154.884 144.633 154.522 144.079 154.159 143.526C150.776 139.099 145.459 135.558 139.176 133.234C134.463 131.574 129.147 130.578 123.467 130.578C122.742 130.578 122.138 130.578 121.413 130.578C118.876 130.689 116.58 130.91 114.284 131.353C110.417 132.127 106.913 133.345 103.651 134.894C101.234 136.001 99.1799 137.329 97.2466 138.878C95.5549 138.657 93.8633 138.435 92.0508 138.325C91.4466 138.325 90.8424 138.325 90.2383 138.325C88.5466 138.325 86.8549 138.435 85.1633 138.657C83.9549 138.878 82.7466 139.099 81.5383 139.321C80.9341 139.431 80.3299 139.542 79.7258 139.763C77.7924 140.317 75.8591 140.981 74.1674 141.866C74.1674 141.645 74.0466 141.313 74.0466 141.091C74.0466 140.538 73.9258 140.095 73.8049 139.542C73.6841 138.878 73.4424 138.214 73.2008 137.55C72.9591 136.886 72.7174 136.333 72.3549 135.779C71.5091 134.341 70.4216 133.013 69.0924 131.906C69.0006 131.822 68.9112 131.755 68.8169 131.689L68.6357 131.561L68.6623 131.574ZM97.6284 120.622C97.6236 119.4 96.2993 118.298 94.6076 118.409C93.0368 118.409 91.7076 119.516 91.7076 120.733H89.4118V116.528C85.3034 116.528 82.0409 118.188 82.0409 120.29C82.0409 120.401 82.0409 120.512 82.0409 120.622H78.0534C78.0534 121.618 80.1076 122.393 82.8868 122.725C82.2826 123.278 82.0409 124.053 82.0409 124.717C82.0409 127.041 85.3034 129.033 89.4118 129.033V122.725C92.4278 122.393 94.6028 121.618 94.6076 120.622H97.6284ZM111.283 106.789L118.412 94.2836C113.941 92.1809 108.503 93.6196 106.328 97.6036C105.724 98.5996 105.483 99.5956 105.362 100.702L100.649 96.6076C97.5076 99.4849 97.5076 104.022 100.528 106.678C100.528 106.789 100.649 106.789 100.649 106.789H95.9368C95.9368 108.449 100.649 109.777 106.57 109.777C112.356 109.777 116.991 108.506 117.194 106.9H121.065C121.06 105.24 119.374 103.912 117.199 104.022C115.188 104.022 113.525 105.182 113.453 106.789H117.194L117.189 106.864L117.184 106.895H113.443C113.443 106.855 113.443 106.82 113.443 106.784H111.263L111.283 106.789Z" fill="white" fill-opacity="0.1"/>
<path d="M200.583 97.276C198.529 97.276 196.717 98.0507 195.146 99.268C192.85 95.3947 188.742 92.8493 184.15 92.8493C179.437 92.8493 175.45 95.5053 173.033 99.4893C172.912 99.4893 172.912 99.4893 172.792 99.4893C168.925 99.4893 165.783 102.92 165.783 107.236H209.404C209.646 101.703 205.658 97.276 200.583 97.276Z" fill="white" fill-opacity="0.1"/>
<path fill-rule="evenodd" clip-rule="evenodd" d="M0.00966667 42.0089H0.613833C2.3055 42.0089 3.87633 42.2307 5.44717 42.4525C9.67633 43.118 13.7847 44.4489 17.4097 46.4454C19.1013 47.3327 20.6722 48.3309 22.1222 49.44C23.0888 50.2164 24.0555 50.9928 24.9013 51.8801C28.1638 54.8747 30.7013 58.313 32.5138 62.3058C33.3597 64.0804 33.9638 65.855 34.4472 67.7405C35.4138 71.2897 35.5347 74.9498 35.1722 78.499C35.0513 79.6082 34.8097 80.8282 34.568 81.9373C34.2055 83.3792 33.7222 84.9319 33.118 86.3738C33.118 86.4847 32.9972 86.5956 32.9972 86.7065C32.9972 86.8175 32.8763 87.0393 32.8763 87.1502C29.493 94.8031 23.2097 101.347 14.8722 105.007C18.618 107.336 21.6388 110.553 23.5722 114.435C23.9347 115.1 24.2972 115.876 24.5388 116.653C25.143 116.32 25.7472 115.987 26.3513 115.655C28.4055 114.656 30.5805 113.991 32.9972 113.436C34.8097 112.993 36.5013 112.882 38.3138 112.771C44.4763 112.549 50.2763 114.213 55.2305 117.207C60.1847 120.202 64.0513 124.639 66.2263 129.962C66.5888 130.073 66.8305 130.295 67.0722 130.406C67.5555 130.628 68.0388 130.961 68.4013 131.293C68.643 131.404 68.8847 131.626 69.1263 131.848C70.4555 132.957 71.543 134.288 72.3888 135.73C72.7513 136.284 72.993 136.95 73.2347 137.504C73.4763 138.17 73.718 138.835 73.8388 139.501C73.9597 140.055 73.9597 140.499 74.0805 141.054C74.2013 141.275 74.2013 141.608 74.2013 141.83C75.893 140.943 77.8263 140.277 79.7597 139.723C80.3638 139.612 80.968 139.39 81.5722 139.279C82.7805 138.946 83.9888 138.724 85.1972 138.614C86.768 138.392 88.4548 138.281 90.2722 138.281H92.0847C93.8972 138.281 95.5888 138.503 97.2805 138.835C99.2138 137.393 101.389 135.952 103.685 134.843C106.826 133.29 110.451 132.07 114.318 131.293C116.614 130.85 119.026 130.628 121.447 130.517H123.501C129.18 130.517 134.497 131.515 139.21 133.179C145.614 135.508 150.81 139.057 154.193 143.494C154.555 144.048 154.918 144.603 155.28 145.157C155.885 146.045 156.368 146.821 156.73 147.708C156.972 148.263 157.214 148.928 157.455 149.483C157.939 149.261 158.301 149.15 158.785 149.039C158.872 148.995 158.983 148.968 159.094 148.946L159.316 148.902C159.427 148.88 159.534 148.853 159.626 148.809C160.351 148.698 161.076 148.587 161.68 148.587C165.305 148.476 168.809 150.14 170.863 152.912C171.709 152.801 172.434 152.691 173.28 152.691C181.98 152.247 190.196 156.129 195.03 162.562C195.866 163.635 196.601 164.78 197.214 166H0V42L0.00966667 42.0089Z" fill="#10585C"/>
<path d="M92.075 72.1547H106.092C106.092 67.2853 100.533 63.3013 93.7666 63.3013C90.1416 63.3013 87 64.408 84.7041 66.1787C84.3416 66.1787 83.9791 66.068 83.4958 66.068C78.7833 66.068 75.0375 68.8347 75.0375 72.1547H92.075Z" fill="white" fill-opacity="0.1"/>
<path d="M94.7333 118.413C93.1624 118.413 91.8333 119.409 91.8333 120.627H89.5374V116.421C85.4291 116.421 82.1666 118.081 82.1666 120.184C82.1666 120.295 82.1666 120.405 82.1666 120.516H78.1791C78.1791 121.401 80.1124 122.176 83.0124 122.619C82.5291 123.172 82.1666 123.836 82.1666 124.611C82.1666 127.045 85.4291 128.927 89.5374 128.927V123.947V122.619C92.5583 122.287 94.7333 121.512 94.7333 120.516H97.7541C97.6333 119.409 96.3041 118.413 94.7333 118.413ZM47.4875 42.0533C45.9166 44.5987 46.7625 47.9187 49.5416 49.6893L50.025 49.0253C51.1125 51.2387 53.4083 52.788 56.3083 52.788V42.164C58.3624 41.832 59.8124 41.168 59.8124 40.3933H62.5916C62.5916 39.176 61.3833 38.2907 59.8124 38.2907C58.2416 38.2907 57.0333 39.2867 57.0333 40.3933H55.9458C53.7708 39.0653 51.2333 39.176 49.3 40.3933H44.225C44.1041 41.0573 45.4333 41.7213 47.4875 42.0533ZM93.0416 52.124C100.775 52.124 106.937 50.3533 106.937 48.2507H111.892C111.892 46.148 109.717 44.3773 106.937 44.3773C104.158 44.3773 101.983 46.0373 101.983 48.14H98.5999L107.179 32.868C101.5 30.212 94.7333 32.0933 91.9541 36.9627C91.2291 38.18 90.8666 39.508 90.7458 40.836L85.4291 35.7453C81.5624 39.0653 81.0791 44.488 84.2208 48.0293H78.9041C79.0249 50.3533 85.3083 52.124 93.0416 52.124ZM117.208 103.916C115.154 103.916 113.462 105.244 113.462 106.793H121.075C121.075 105.244 119.383 103.916 117.208 103.916ZM134.85 69.6093C134.125 70.1627 133.4 70.9373 132.917 71.712C129.896 76.1387 131.346 82.2253 136.3 85.2133L137.146 83.996C138.958 87.8693 143.067 90.5253 147.9 90.5253V69.9413C152.492 69.388 155.633 68.06 155.633 66.6213H160.346C160.346 64.6293 158.292 63.08 155.633 63.08C153.096 63.08 151.042 64.6293 150.921 66.6213H129.292V66.732C129.292 67.8387 131.467 68.9453 134.85 69.6093Z" fill="#1A1D28"/>
<path d="M118.417 94.288C113.946 92.1854 108.508 93.624 106.333 97.608C105.729 98.604 105.487 99.7107 105.367 100.707L100.654 96.612C97.6333 99.6 97.5125 104.137 100.533 106.683L100.654 106.793H95.9417C95.9417 108.453 100.654 109.781 106.575 109.781C112.496 109.781 117.208 108.453 117.208 106.793H111.287L118.417 94.288ZM162.279 51.6813C175.933 51.6813 186.929 48.5827 187.05 44.82H195.871C195.871 41.0573 191.883 38.0693 187.05 38.0693C182.217 38.0693 178.229 41.0573 178.229 44.82H171.221V12.616C163.367 12.616 156.721 16.8213 153.821 22.7973L152.492 20.916C144.637 25.564 142.221 34.86 147.054 41.832C147.9 43.0493 148.867 44.0453 149.954 44.9307H137.508C137.508 48.5827 148.625 51.6813 162.279 51.6813Z" fill="#1A1D28"/>
</svg>
